PathFileType	4	(X/Y/Z)	C:\Users\dbl\Desktop\20210112(1)\20210112\bx_y_10_901.trc
DataRate	CameraRate	NumFrames	NumMarkers	Units	OrigDataRate	OrigDataStartFrame	OrigNumFrames
50.00	50.00	       4	43	mm	50.00	67	       530
Frame#	Time	Top.Head			R.Acromium			L.Acromium			Sternum			R.ASIS			L.ASIS			V.Sacral			R.Thigh.Upper			R.Thigh.Front			R.Thigh.Rear			R.Knee.Lat			R.Knee.Med			R.Shank.Upper			R.Shank.Front			R.Shank.Rear			R.Ankle.Lat			R.Midfoot.Lat			R.Toe.Lat			R.Toe.Tip			R.Toe.Med			R.Ankle.Med			R.Midfoot.Sup			R.Heel			L.Thigh.Upper			L.Thigh.Front			L.Thigh.Rear			L.Knee.Lat			L.Knee.Med			L.Shank.Upper			L.Shank.Front			L.Shank.Rear			L.Ankle.Lat			L.Midfoot.Lat			L.Toe.Lat			L.Toe.Tip			L.Toe.Med			L.Ankle.Med			L.Midfoot.Sup			L.Heel			origin1 front left			origin2 front right			origin 3 back right			origin 4 back leftt			
		X1	Y1	Z1	X2	Y2	Z2	X3	Y3	Z3	X4	Y4	Z4	X5	Y5	Z5	X6	Y6	Z6	X7	Y7	Z7	X8	Y8	Z8	X9	Y9	Z9	X10	Y10	Z10	X11	Y11	Z11	X12	Y12	Z12	X13	Y13	Z13	X14	Y14	Z14	X15	Y15	Z15	X16	Y16	Z16	X17	Y17	Z17	X18	Y18	Z18	X19	Y19	Z19	X20	Y20	Z20	X21	Y21	Z21	X22	Y22	Z22	X23	Y23	Z23	X24	Y24	Z24	X25	Y25	Z25	X26	Y26	Z26	X27	Y27	Z27	X28	Y28	Z28	X29	Y29	Z29	X30	Y30	Z30	X31	Y31	Z31	X32	Y32	Z32	X33	Y33	Z33	X34	Y34	Z34	X35	Y35	Z35	X36	Y36	Z36	X37	Y37	Z37	X38	Y38	Z38	X39	Y39	Z39	X40	Y40	Z40	X41	Y41	Z41	X42	Y42	Z42	X43	Y43	Z43	

67	1.320	-440.69727	113.95098	1789.24451	-588.96295	-70.62336	1519.99841	-598.08203	288.61078	1511.69385	-552.14813	103.92661	1386.83325	-675.50433	-2.17125	1041.07849	-661.43872	217.28241	1057.57544	-868.19775	101.23338	1075.61609	-734.54254	-64.26384	870.54828	-660.60779	-5.48109	808.72064	-763.67969	-47.35851	716.61273	-750.79871	-25.84333	617.00037	-730.79352	82.60770	573.84955	-757.79193	-22.41104	566.34656	-702.98517	20.34890	523.76727	-796.68274	-32.35791	484.06503	-770.42010	-5.51511	205.21553	-665.17023	-66.94074	163.00984	-624.03809	-77.71170	159.29459	-562.68884	-40.62913	164.33084	-603.86798	19.38890	167.47905	-720.13940	77.21825	217.56769	-675.74213	56.03275	159.24216	-795.72369	55.24910	173.58012	-715.35919	284.40555	877.01208	-659.64630	214.06839	817.95898	-757.14832	280.68048	747.10419	-777.40167	254.44499	636.63306	-737.44788	145.15819	573.68011	-773.95239	248.90300	573.14288	-716.43835	207.42966	535.33514	-807.86530	259.20508	496.23715	-774.12238	224.61620	202.81975	-667.23431	299.48517	159.46805	-629.53046	306.71463	161.43913	-562.27087	261.07620	166.15770	-596.28796	223.36595	175.12932	-715.72668	154.89404	218.84468	-676.48029	173.23047	159.34894	-797.51630	174.43549	182.62849	-528.09344	303.83319	146.40782	-518.07043	-72.36343	142.87735	-876.04004	-78.51387	141.48593	-882.48914	296.14365	144.69325	
68	1.340	-425.37402	113.20515	1779.99414	-580.58362	-70.74742	1514.51538	-590.08307	287.84720	1507.08008	-547.88641	103.43379	1380.84985	-679.64685	-1.83441	1040.11963	-665.63159	217.32655	1056.42297	-871.95221	101.19925	1076.02649	-738.48779	-64.33491	870.42450	-664.51062	-5.34035	808.74127	-767.12732	-47.59560	716.34143	-753.63440	-25.98322	616.87775	-733.50201	82.51845	573.71338	-760.50317	-22.52708	566.14502	-705.44574	20.17852	523.91571	-798.77924	-32.59026	483.74261	-770.84338	-5.78849	204.99643	-665.17767	-66.97494	162.94014	-624.03119	-77.76408	159.29248	-562.81598	-40.43555	164.30978	-604.06439	19.30218	167.55034	-720.57343	76.93423	217.79047	-676.00238	55.83139	159.26364	-795.94366	54.99073	173.42720	-719.09326	284.62991	876.96472	-663.35706	214.24478	818.03888	-760.61444	281.02066	746.95587	-780.00854	254.60040	636.14777	-739.67065	145.28893	573.51935	-776.24469	248.97838	572.83075	-718.41455	207.48314	535.33624	-809.67181	259.41135	495.87024	-774.29956	224.83490	202.68182	-667.28339	299.51743	159.33719	-629.52032	306.75760	161.49477	-562.23163	260.95767	166.12907	-596.27826	223.37041	175.08478	-715.98846	155.07579	218.81079	-676.43976	173.37311	159.51962	-797.59357	174.68279	182.35236	-528.17297	303.87921	146.39594	-518.07605	-72.33759	142.86414	-876.07892	-78.53487	141.55225	-882.52246	296.16571	144.70262	
69	1.360	-410.01868	112.49362	1770.02332	-571.93311	-70.93491	1508.53821	-581.93585	287.20071	1502.13416	-543.81604	103.04082	1374.46704	-683.73676	-1.48750	1039.14905	-669.82733	217.48975	1055.35657	-875.75500	101.09396	1076.46094	-742.42645	-64.35111	870.22711	-668.36908	-5.11173	808.75677	-770.52368	-47.74688	716.06152	-756.47827	-26.07759	616.74524	-736.29510	82.42381	573.40570	-763.16565	-22.57001	565.92816	-707.80450	20.02432	524.04730	-800.80066	-32.75941	483.43851	-771.24829	-6.01932	204.80605	-665.20648	-67.02902	162.87733	-624.04657	-77.82560	159.22263	-562.95447	-40.21040	164.24713	-604.25049	19.22883	167.64391	-721.06696	76.66125	218.03706	-676.20856	55.61816	159.35374	-796.19800	54.77022	173.32111	-722.88879	284.78751	876.88623	-667.10046	214.38071	818.07684	-764.17908	281.31824	746.75543	-782.64026	254.78046	635.68219	-741.87842	145.39647	573.38354	-778.51282	249.02060	572.46381	-720.36200	207.54915	535.39392	-811.42035	259.59753	495.48166	-774.44666	224.98862	202.56436	-667.31238	299.55396	159.25946	-629.48792	306.78821	161.55757	-562.17358	260.79865	166.06187	-596.26044	223.36392	175.01749	-716.16669	155.21040	218.79982	-676.40833	173.50124	159.69489	-797.74408	174.71240	182.23950	-528.20782	303.91714	146.39394	-518.05786	-72.34097	142.89221	-876.11481	-78.55829	141.61134	-882.55505	296.16318	144.69289	
70	1.380	-394.72607	111.80775	1759.33167	-563.07391	-71.15730	1502.04639	-573.67334	286.49686	1496.75879	-539.84692	102.68342	1367.73645	-687.74817	-1.25360	1038.16724	-674.12683	217.69644	1054.37061	-879.58691	100.95916	1076.98352	-746.37201	-64.34161	869.95648	-672.24817	-4.92007	808.69922	-773.92865	-47.91342	715.75610	-759.32660	-26.08533	616.55438	-739.12939	82.29036	572.97290	-765.74878	-22.49630	565.68939	-710.03180	19.90257	524.17261	-802.75562	-32.84020	483.09406	-771.57013	-6.18756	204.63063	-665.24652	-67.09367	162.78125	-624.06976	-77.91158	159.09973	-563.05554	-39.97836	164.16689	-604.39026	19.18011	167.75464	-721.54156	76.43177	218.28508	-676.34259	55.41943	159.53551	-796.41425	54.63552	173.27174	-726.82111	284.91449	876.73291	-671.00366	214.43541	817.94678	-767.91705	281.51263	746.39752	-785.34814	254.98199	635.22351	-744.11487	145.47856	573.26202	-780.80280	249.06326	572.08063	-722.35077	207.65718	535.49005	-813.17578	259.75055	495.08554	-774.57770	225.06416	202.46643	-667.30133	299.59048	159.24692	-629.43713	306.81488	161.60324	-562.16095	260.62408	165.97160	-596.25146	223.35870	174.94873	-716.30798	155.30267	218.85643	-676.41302	173.59967	159.87735	-797.94403	174.63165	182.23715	-528.20593	303.93689	146.40193	-518.02350	-72.37483	142.94247	-876.14105	-78.59233	141.63660	-882.57495	296.14493	144.67215	
